<?xml version="1.0" encoding="utf-8"?>
<!-- Generator: Adobe Illustrator 27.5.0, SVG Export Plug-In . SVG Version: 6.00 Build 0)  -->
<svg version="1.1" id="Ñëîé_1" xmlns="http://www.w3.org/2000/svg" xmlns:xlink="http://www.w3.org/1999/xlink" x="0px" y="0px"
	 viewBox="0 0 4574.559 2200" style="enable-background:new 0 0 4574.559 2200;" xml:space="preserve">
<rect x="0" style="fill:#FFFFFF;" width="4574.559" height="2200"/>
<g>
	<path style="fill:#E5F0F8;" d="M609.173,2033.928c0,0-268.668-581.247,13.106-915.472s548.257,75.628,840.952-51.581
		s265.683-969.667,972.701-938.58s705.562,633.275,1057.961,822.319s786.345,162.102,666.937,1083.314H609.173z"/>
	<g>
		<path style="fill:#40A87B;" d="M634.7,2000.927c0,0-59.72-238.219-208.586-311.738
			c-148.866-73.519-307.752,27.133-267.407,132.973c34.789,91.264,177.842-20.954,289.145,23.176
			c111.303,44.129,128.848,155.589,128.848,155.589H634.7z"/>
		<path style="fill:none;stroke:#6ADB6A;stroke-width:6.708;stroke-miterlimit:10;" d="M187.483,1758.693
			c0,0,159.772-91.053,278.312-6.872c118.54,84.181,156.055,249.107,156.055,249.107"/>
		
			<line style="fill:none;stroke:#6ADB6A;stroke-width:6.708;stroke-miterlimit:10;" x1="213.253" y1="1716.109" x2="250.425" y2="1732.314"/>
		
			<line style="fill:none;stroke:#6ADB6A;stroke-width:6.708;stroke-miterlimit:10;" x1="266.94" y1="1681.384" x2="340.98" y2="1716.109"/>
		
			<line style="fill:none;stroke:#6ADB6A;stroke-width:6.708;stroke-miterlimit:10;" x1="378.179" y1="1681.384" x2="416.698" y2="1726.885"/>
		
			<line style="fill:none;stroke:#6ADB6A;stroke-width:6.708;stroke-miterlimit:10;" x1="451.193" y1="1711.878" x2="468.508" y2="1753.781"/>
		
			<line style="fill:none;stroke:#6ADB6A;stroke-width:6.708;stroke-miterlimit:10;" x1="231.839" y1="1816.674" x2="288.904" y2="1722.267"/>
		
			<line style="fill:none;stroke:#6ADB6A;stroke-width:6.708;stroke-miterlimit:10;" x1="332.652" y1="1803.145" x2="384.99" y2="1719.091"/>
		
			<line style="fill:none;stroke:#6ADB6A;stroke-width:6.708;stroke-miterlimit:10;" x1="421.558" y1="1790.26" x2="500.241" y2="1780.483"/>
		
			<line style="fill:none;stroke:#6ADB6A;stroke-width:6.708;stroke-miterlimit:10;" x1="513.16" y1="1837.934" x2="558.261" y2="1852.742"/>
	</g>
	<g>
		<path style="fill:#6ADB6A;" d="M728.36,2001.621c0,0,42.139-798.499-339.251-695.601
			c-381.391,102.899,297.507,533.252,296.929,695.601H728.36z"/>
		<path style="fill:none;stroke:#40A87B;stroke-width:6.708;stroke-miterlimit:10;" d="M712.947,2001.621
			c0,0-13.317-417.19-285.184-623.475"/>
		
			<line style="fill:none;stroke:#40A87B;stroke-width:6.708;stroke-miterlimit:10;" x1="547.003" y1="1499.113" x2="540.211" y2="1355.253"/>
		
			<line style="fill:none;stroke:#40A87B;stroke-width:6.708;stroke-miterlimit:10;" x1="333.703" y1="1439.504" x2="517.463" y2="1463.455"/>
		
			<line style="fill:none;stroke:#40A87B;stroke-width:6.708;stroke-miterlimit:10;" x1="405.166" y1="1562.284" x2="599.459" y2="1584.921"/>
		
			<line style="fill:none;stroke:#40A87B;stroke-width:6.708;stroke-miterlimit:10;" x1="502.313" y1="1683.958" x2="652.38" y2="1705.166"/>
		
			<line style="fill:none;stroke:#40A87B;stroke-width:6.708;stroke-miterlimit:10;" x1="666.776" y1="1570.27" x2="632.38" y2="1653.838"/>
		
			<line style="fill:none;stroke:#40A87B;stroke-width:6.708;stroke-miterlimit:10;" x1="610.256" y1="1434.64" x2="580.932" y2="1552.294"/>
		
			<line style="fill:none;stroke:#40A87B;stroke-width:6.708;stroke-miterlimit:10;" x1="698.887" y1="1709.78" x2="671.483" y2="1764.4"/>
		
			<line style="fill:none;stroke:#40A87B;stroke-width:6.708;stroke-miterlimit:10;" x1="580.932" y1="1796.752" x2="688.467" y2="1830.656"/>
	</g>
	<g>
		<path style="fill:#BBDBF3;" d="M1546.196,154.454H544.148c-11.863,0-21.48,15.746-21.48,35.169v81.427v724.451h1045.009V271.05
			v-81.427C1567.676,170.2,1558.059,154.454,1546.196,154.454z"/>
		<rect x="536.635" y="233.496" style="fill:#E5F0F8;" width="1017.071" height="749.055"/>
		<path style="fill:#FFFFFF;" d="M580.404,310.121v-7.868l45.419-24.58v12.017l-30.339,16.498l30.339,16.498v12.017L580.404,310.121
			z"/>
		<path style="fill:#FFFFFF;" d="M1465.377,963.12v-12.017l30.339-16.498l-30.339-16.498v-12.017l45.419,24.581v7.867
			L1465.377,963.12z"/>
		<rect x="642.668" y="296.909" style="fill:#FFFFFF;" width="180.625" height="18.557"/>
		<rect x="580.404" y="368.62" style="fill:#FFFFFF;" width="180.625" height="18.557"/>
		<rect x="618.88" y="418.576" style="fill:#FFFFFF;" width="180.625" height="18.557"/>
		<rect x="618.88" y="556.068" style="fill:#FFFFFF;" width="180.625" height="18.557"/>
		<rect x="618.88" y="598.599" style="fill:#FFFFFF;" width="180.625" height="18.557"/>
		<rect x="680.946" y="466.154" style="fill:#FFFFFF;" width="544.728" height="18.557"/>
		<rect x="680.946" y="643.787" style="fill:#FFFFFF;" width="727.711" height="18.557"/>
		<rect x="680.946" y="786.056" style="fill:#FFFFFF;" width="727.711" height="18.557"/>
		<rect x="749.389" y="925.328" style="fill:#FFFFFF;" width="697.182" height="18.557"/>
		<rect x="680.946" y="834.396" style="fill:#FFFFFF;" width="155.866" height="18.557"/>
		<rect x="680.946" y="880.379" style="fill:#FFFFFF;" width="155.866" height="18.557"/>
		<rect x="680.946" y="689.202" style="fill:#FFFFFF;" width="727.711" height="18.557"/>
		<rect x="680.946" y="734.617" style="fill:#FFFFFF;" width="393.725" height="18.557"/>
		<rect x="680.946" y="508.919" style="fill:#FFFFFF;" width="167.033" height="18.557"/>
		<g>
			
				<line style="fill:none;stroke:#FFFFFF;stroke-width:7.4141;stroke-linecap:round;stroke-linejoin:round;stroke-miterlimit:10;" x1="1481.273" y1="218.103" x2="1527.507" y2="171.869"/>
			
				<line style="fill:none;stroke:#FFFFFF;stroke-width:7.4141;stroke-linecap:round;stroke-linejoin:round;stroke-miterlimit:10;" x1="1527.507" y1="218.103" x2="1481.273" y2="171.869"/>
		</g>
	</g>
	<g>
		<path style="fill:#BBDBF3;" d="M3176.364,934.962h950.959c13.966,0,25.607-12.989,26.372-29.682
			c2.883-62.91,19.205-148.714-70.409-188.439c-90.165-39.97-181.259,5.1-181.259,5.1s-13.848-213.395-223.848-213.021
			c-193.336,0.344-279.958,196.767-279.958,196.767s-168.769-63.773-246.557,186.324
			C3145.206,912.777,3157.853,934.962,3176.364,934.962z"/>
		<path style="fill:#BBDBF3;" d="M3342.439,1013.146h-44.655c-12.015,0-21.755-9.74-21.755-21.755v-80.15h88.165v80.15
			C3364.194,1003.406,3354.454,1013.146,3342.439,1013.146z"/>
		<path style="fill:#BBDBF3;" d="M3961.719,1013.146h44.655c12.015,0,21.755-9.74,21.755-21.755v-80.15h-88.165v80.15
			C3939.964,1003.406,3949.704,1013.146,3961.719,1013.146z"/>
		<path style="fill:#BBDBF3;" d="M3674.406,1013.146h-44.655c-12.015,0-21.755-9.74-21.755-21.755v-80.15h88.165v80.15
			C3696.161,1003.406,3686.421,1013.146,3674.406,1013.146z"/>
		<g>
			<path style="fill:#FFFFFF;" d="M3539.731,668.799h23.01l80.145,187.26h-29.623l-18.781-46.287h-89.131l-18.519,46.287h-29.623
				L3539.731,668.799z M3585.222,787.556l-34.91-85.961h-0.529l-35.44,85.961H3585.222z"/>
			<path style="fill:#FFFFFF;" d="M3667.216,668.799h65.859c11.99,0,21.862,1.633,29.623,4.892
				c7.755,3.265,13.884,7.407,18.38,12.433c4.496,5.025,7.627,10.669,9.394,16.929c1.76,6.259,2.641,12.299,2.641,18.115
				c0,5.819-0.88,11.862-2.641,18.118c-1.766,6.262-4.897,11.903-9.394,16.929c-4.496,5.025-10.625,9.17-18.38,12.43
				c-7.761,3.265-17.633,4.894-29.623,4.894h-40.47v82.521h-25.389V668.799z M3692.605,751.319h33.328
				c4.936,0,9.828-0.396,14.681-1.19c4.847-0.794,9.165-2.248,12.959-4.365c3.789-2.114,6.831-5.156,9.126-9.123
				c2.29-3.967,3.438-9.126,3.438-15.475c0-6.346-1.148-11.505-3.438-15.472c-2.295-3.967-5.337-7.009-9.126-9.126
				c-3.794-2.114-8.112-3.568-12.959-4.362c-4.853-0.794-9.744-1.192-14.681-1.192h-33.328V751.319z"/>
			<path style="fill:#FFFFFF;" d="M3824.056,668.799h25.389v187.26h-25.389V668.799z"/>
		</g>
		
			<line style="fill:none;stroke:#BBDBF3;stroke-width:17.235;stroke-linecap:round;stroke-miterlimit:10;" x1="3984.047" y1="962.194" x2="3984.047" y2="2015.714"/>
		
			<line style="fill:none;stroke:#BBDBF3;stroke-width:17.235;stroke-linecap:round;stroke-miterlimit:10;" x1="3652.079" y1="962.194" x2="3652.079" y2="2015.714"/>
		
			<line style="fill:none;stroke:#BBDBF3;stroke-width:17.235;stroke-linecap:round;stroke-miterlimit:10;" x1="3320.112" y1="962.194" x2="3320.112" y2="2015.714"/>
	</g>
	<g>
		<path style="fill:#40A87B;" d="M3939.859,2000.927c0,0,59.72-238.219,208.586-311.738
			c148.866-73.519,307.751,27.133,267.407,132.973c-34.789,91.264-177.842-20.954-289.146,23.176
			c-111.303,44.129-128.848,155.589-128.848,155.589H3939.859z"/>
		<path style="fill:none;stroke:#6ADB6A;stroke-width:6.708;stroke-miterlimit:10;" d="M4387.075,1758.693
			c0,0-159.772-91.053-278.312-6.872c-118.541,84.181-156.055,249.107-156.055,249.107"/>
		
			<line style="fill:none;stroke:#6ADB6A;stroke-width:6.708;stroke-miterlimit:10;" x1="4361.306" y1="1716.109" x2="4324.133" y2="1732.314"/>
		
			<line style="fill:none;stroke:#6ADB6A;stroke-width:6.708;stroke-miterlimit:10;" x1="4307.619" y1="1681.384" x2="4233.579" y2="1716.109"/>
		
			<line style="fill:none;stroke:#6ADB6A;stroke-width:6.708;stroke-miterlimit:10;" x1="4196.38" y1="1681.384" x2="4157.86" y2="1726.885"/>
		
			<line style="fill:none;stroke:#6ADB6A;stroke-width:6.708;stroke-miterlimit:10;" x1="4123.366" y1="1711.878" x2="4106.05" y2="1753.781"/>
		
			<line style="fill:none;stroke:#6ADB6A;stroke-width:6.708;stroke-miterlimit:10;" x1="4342.719" y1="1816.674" x2="4285.654" y2="1722.267"/>
		
			<line style="fill:none;stroke:#6ADB6A;stroke-width:6.708;stroke-miterlimit:10;" x1="4241.906" y1="1803.145" x2="4189.568" y2="1719.091"/>
		
			<line style="fill:none;stroke:#6ADB6A;stroke-width:6.708;stroke-miterlimit:10;" x1="4153.001" y1="1790.26" x2="4074.318" y2="1780.483"/>
		
			<line style="fill:none;stroke:#6ADB6A;stroke-width:6.708;stroke-miterlimit:10;" x1="4061.399" y1="1837.934" x2="4016.298" y2="1852.742"/>
	</g>
	<g>
		<path style="fill:#6ADB6A;" d="M3888.641,2001.621c0,0-42.139-798.499,339.251-695.601
			c381.391,102.899-297.507,533.252-296.929,695.601H3888.641z"/>
		<path style="fill:none;stroke:#40A87B;stroke-width:6.708;stroke-miterlimit:10;" d="M3904.054,2001.621
			c0,0,13.316-417.19,285.184-623.475"/>
		
			<line style="fill:none;stroke:#40A87B;stroke-width:6.708;stroke-miterlimit:10;" x1="4069.998" y1="1499.113" x2="4076.79" y2="1355.253"/>
		
			<line style="fill:none;stroke:#40A87B;stroke-width:6.708;stroke-miterlimit:10;" x1="4283.297" y1="1439.504" x2="4099.538" y2="1463.455"/>
		
			<line style="fill:none;stroke:#40A87B;stroke-width:6.708;stroke-miterlimit:10;" x1="4211.834" y1="1562.284" x2="4017.542" y2="1584.921"/>
		
			<line style="fill:none;stroke:#40A87B;stroke-width:6.708;stroke-miterlimit:10;" x1="4114.688" y1="1683.958" x2="3964.62" y2="1705.166"/>
		
			<line style="fill:none;stroke:#40A87B;stroke-width:6.708;stroke-miterlimit:10;" x1="3950.225" y1="1570.27" x2="3984.62" y2="1653.838"/>
		
			<line style="fill:none;stroke:#40A87B;stroke-width:6.708;stroke-miterlimit:10;" x1="4006.745" y1="1434.64" x2="4036.069" y2="1552.294"/>
		
			<line style="fill:none;stroke:#40A87B;stroke-width:6.708;stroke-miterlimit:10;" x1="3918.114" y1="1709.78" x2="3945.518" y2="1764.4"/>
		
			<line style="fill:none;stroke:#40A87B;stroke-width:6.708;stroke-miterlimit:10;" x1="4036.069" y1="1796.752" x2="3928.533" y2="1830.656"/>
	</g>
	<path style="fill:#0775EF;" d="M4224.29,2072.544H470.373c-19.283,0-34.916-15.632-34.916-34.916v-15.274
		c0-19.283,15.632-34.916,34.916-34.916H4224.29c19.283,0,34.916,15.632,34.916,34.916v15.274
		C4259.205,2056.912,4243.573,2072.544,4224.29,2072.544z"/>
	<g>
		<rect x="2201.556" y="1497.433" style="fill:#93ACBF;" width="326.44" height="441.265"/>
		<path style="fill:#93ACBF;" d="M3197.599,1684.491H1531.953c-99.254,0-179.715-80.461-179.715-179.714V545.85
			c0-99.254,80.461-179.714,179.715-179.714h1665.646c99.253,0,179.714,80.461,179.714,179.714v958.927
			C3377.314,1604.03,3296.853,1684.491,3197.599,1684.491z"/>
		<path style="fill:#E5F0F8;" d="M1531.955,1617.11c-61.942,0-112.335-50.393-112.335-112.335V545.851
			c0-61.942,50.393-112.335,112.335-112.335h1665.643c61.942,0,112.335,50.393,112.335,112.335v958.924
			c0,61.942-50.393,112.335-112.335,112.335H1531.955z"/>
		<path style="fill:#BBDBF3;" d="M3242.541,545.863v61.931H1486.985v-61.931c0-24.793,20.187-44.98,44.979-44.98h1665.599
			C3222.354,500.883,3242.541,521.071,3242.541,545.863z"/>
		<path style="fill:#FFFFFF;" d="M3242.557,610.345v896.947c0,24.793-20.186,44.979-44.979,44.979H1531.965
			c-24.793,0-44.979-20.186-44.979-44.979V610.345H3242.557z"/>
		
			<ellipse transform="matrix(0.161 -0.9869 0.9869 0.161 777.5076 2030.1389)" style="fill:#40A87B;" cx="1582.884" cy="557.739" rx="17.239" ry="17.239"/>
		
			<ellipse transform="matrix(0.161 -0.9869 0.9869 0.161 818.2197 2078.0327)" style="fill:#FFFFFF;" cx="1631.411" cy="557.739" rx="17.239" ry="17.239"/>
		
			<ellipse transform="matrix(0.161 -0.9869 0.9869 0.161 858.9318 2125.9268)" style="fill:#F74242;" cx="1679.939" cy="557.739" rx="17.239" ry="17.239"/>
		<path style="fill:#93ACBF;" d="M2041.521,1900.823h646.511c6.338,0,11.476,5.138,11.476,11.476v63.617
			c0,6.338-5.138,11.476-11.476,11.476h-646.511c-6.338,0-11.476-5.138-11.476-11.476V1912.3
			C2030.045,1905.961,2035.183,1900.823,2041.521,1900.823z"/>
		<rect x="1529.126" y="653.426" style="fill:#BBDBF3;" width="150.149" height="23.353"/>
		<polygon style="fill:#BBDBF3;" points="2075.956,712.719 1871.241,712.719 1486.984,712.719 1486.984,792.181 3242.542,792.181 
			3242.542,712.719 		"/>
		<rect x="1713.825" y="653.426" style="fill:#BBDBF3;" width="150.149" height="23.353"/>
		<rect x="1898.524" y="653.426" style="fill:#BBDBF3;" width="150.149" height="23.353"/>
		<rect x="2083.222" y="653.426" style="fill:#BBDBF3;" width="150.149" height="23.353"/>
		<rect x="1529.126" y="744.261" style="fill:#FFFFFF;" width="190.368" height="15.771"/>
		<rect x="1763.298" y="744.261" style="fill:#FFFFFF;" width="190.368" height="15.771"/>
		<rect x="1997.47" y="744.261" style="fill:#FFFFFF;" width="190.368" height="15.771"/>
		<rect x="2231.641" y="744.261" style="fill:#FFFFFF;" width="190.368" height="15.771"/>
		<rect x="2267.921" y="653.426" style="fill:#BBDBF3;" width="150.149" height="23.353"/>
		<rect x="2452.62" y="653.426" style="fill:#BBDBF3;" width="150.149" height="23.353"/>
		
			<rect x="2722.666" y="626.287" style="fill:none;stroke:#BBDBF3;stroke-width:7.0554;stroke-miterlimit:10;" width="218.232" height="71.439"/>
		<rect x="2971.186" y="626.287" style="fill:#BBDBF3;" width="218.232" height="71.439"/>
		<polygon style="fill:#586773;" points="2201.556,1684.63 2527.996,1684.63 2201.556,1767.024 		"/>
		<g>
			
				<rect x="1608.846" y="757.119" transform="matrix(-1.836970e-16 1 -1 -1.836970e-16 2912.373 -780.4266)" style="fill:#BBDBF3;" width="475.107" height="617.708"/>
			<polygon style="fill:#FFFFFF;" points="1983.673,1058.869 1751.401,924.767 1751.401,1192.971 			"/>
			<rect x="1537.546" y="1277.666" style="fill:#E5F0F8;" width="617.708" height="25.86"/>
			<rect x="1537.546" y="1277.666" style="fill:#BBDBF3;" width="303.214" height="25.86"/>
			<path style="fill:#FFFFFF;" d="M1862.792,1303.527h-38.318c-7.111,0-12.93-5.819-12.93-12.93l0,0
				c0-7.112,5.819-12.93,12.93-12.93h38.318c7.112,0,12.93,5.818,12.93,12.93l0,0
				C1875.723,1297.708,1869.904,1303.527,1862.792,1303.527z"/>
		</g>
		<g>
			
				<rect x="2444.857" y="615.204" transform="matrix(-1.836970e-16 1 -1 -1.836970e-16 3815.8711 -1616.4373)" style="fill:#BBDBF3;" width="542.594" height="969.026"/>
			<rect x="2255.446" y="854.891" style="fill:#FFFFFF;" width="921.422" height="483.659"/>
			<polygon style="fill:#BBDBF3;" points="2255.446,1338.55 2481.388,1117.266 2667.292,1277.666 2957.143,984.91 3176.868,1338.55 
							"/>
			<circle style="fill:#BBDBF3;" cx="2658.992" cy="1005.095" r="53.774"/>
		</g>
		<g>
			<rect x="2231.641" y="1408.914" style="fill:#BBDBF3;" width="78.385" height="15.978"/>
			<rect x="2321.03" y="1408.914" style="fill:#BBDBF3;" width="309.63" height="15.978"/>
			<rect x="2642.959" y="1408.914" style="fill:#BBDBF3;" width="268.174" height="15.978"/>
			<rect x="2922.145" y="1408.914" style="fill:#BBDBF3;" width="278.522" height="15.978"/>
			<rect x="2231.641" y="1439.418" style="fill:#BBDBF3;" width="162.592" height="15.978"/>
			<rect x="2406.852" y="1439.418" style="fill:#BBDBF3;" width="290.525" height="15.978"/>
			<rect x="2709.997" y="1439.418" style="fill:#BBDBF3;" width="490.671" height="15.978"/>
			<rect x="2231.641" y="1469.921" style="fill:#BBDBF3;" width="249.382" height="15.978"/>
			<rect x="2491.387" y="1469.921" style="fill:#BBDBF3;" width="353.029" height="15.978"/>
			<rect x="2858.018" y="1469.921" style="fill:#BBDBF3;" width="342.649" height="15.978"/>
			<rect x="2231.641" y="1500.425" style="fill:#BBDBF3;" width="305.527" height="15.978"/>
			<rect x="2552.115" y="1500.425" style="fill:#BBDBF3;" width="305.527" height="15.978"/>
			<rect x="2871.405" y="1500.425" style="fill:#BBDBF3;" width="328.715" height="15.978"/>
		</g>
		<g>
			<rect x="1537.546" y="1347.906" style="fill:#BBDBF3;" width="49.967" height="15.978"/>
			<rect x="1594.527" y="1347.906" style="fill:#BBDBF3;" width="197.374" height="15.978"/>
			<rect x="1799.741" y="1347.906" style="fill:#BBDBF3;" width="170.948" height="15.978"/>
			<rect x="1977.709" y="1347.906" style="fill:#BBDBF3;" width="177.545" height="15.978"/>
			<rect x="1537.546" y="1378.41" style="fill:#BBDBF3;" width="103.644" height="15.978"/>
			<rect x="1649.235" y="1378.41" style="fill:#BBDBF3;" width="185.196" height="15.978"/>
			<rect x="1842.475" y="1378.41" style="fill:#BBDBF3;" width="312.779" height="15.978"/>
			<rect x="1537.546" y="1408.914" style="fill:#BBDBF3;" width="158.969" height="15.978"/>
			<rect x="1703.121" y="1408.914" style="fill:#BBDBF3;" width="225.039" height="15.978"/>
			<rect x="1936.831" y="1408.914" style="fill:#BBDBF3;" width="218.422" height="15.978"/>
			<rect x="1537.546" y="1439.418" style="fill:#BBDBF3;" width="194.759" height="15.978"/>
			<rect x="1741.833" y="1439.418" style="fill:#BBDBF3;" width="194.759" height="15.978"/>
			<rect x="1945.365" y="1439.418" style="fill:#BBDBF3;" width="209.54" height="15.978"/>
			<rect x="1537.546" y="1469.921" style="fill:#BBDBF3;" width="171.636" height="15.978"/>
			<rect x="1716.334" y="1469.921" style="fill:#BBDBF3;" width="246.785" height="15.978"/>
			<rect x="1970.689" y="1469.921" style="fill:#BBDBF3;" width="184.215" height="15.978"/>
			<rect x="1537.546" y="1500.425" style="fill:#BBDBF3;" width="89.055" height="15.978"/>
			<rect x="1634.926" y="1500.425" style="fill:#BBDBF3;" width="119.676" height="15.978"/>
			<rect x="1763.752" y="1500.425" style="fill:#BBDBF3;" width="190.283" height="15.978"/>
			<rect x="1963.12" y="1500.425" style="fill:#BBDBF3;" width="190.283" height="15.978"/>
		</g>
	</g>
	<g>
		<g>
			<polygon style="fill:#F9E181;" points="1906.901,1488.868 1877.887,1546.881 1449.852,1546.882 1449.852,1986.664 
				2119.688,1986.664 2119.688,1546.881 2044.678,1546.881 2044.678,1488.868 			"/>
		</g>
		<g>
			<polygon style="fill:#F9ECB8;" points="1893.503,1488.868 1864.489,1546.881 1436.454,1546.882 1436.454,1986.664 
				2106.29,1986.664 2106.29,1546.881 2031.281,1546.881 2031.281,1488.868 			"/>
		</g>
		<g>
			<g>
				<path style="fill:#FFFFFF;" d="M1672.253,1749.426v148.166c0,2.681,2.169,4.833,4.85,4.833h94.268h94.286
					c2.681,0,4.85-2.152,4.85-4.833v-148.166c0-2.664-2.169-4.833-4.85-4.833h-40.392v-55.813c0-29.712-24.174-53.885-53.886-53.885
					c-29.713,0-53.885,24.172-53.885,53.885v55.813h-40.391C1674.422,1744.593,1672.253,1746.762,1672.253,1749.426z
					 M1808.188,1744.593h-36.816h-36.8v-55.813c0-20.295,16.512-36.807,36.808-36.807c20.296,0,36.808,16.512,36.808,36.807
					V1744.593z"/>
				<path style="fill:#F9ECB8;" d="M1758.335,1811.475c0-7.205,5.841-13.046,13.046-13.046s13.045,5.841,13.045,13.046
					c0,5-2.815,9.338-6.945,11.528v28.634c0,3.355-2.745,6.101-6.101,6.101c-3.355,0-6.101-2.745-6.101-6.101v-28.635
					C1761.15,1820.812,1758.335,1816.474,1758.335,1811.475z"/>
			</g>
			<polyline style="fill:none;stroke:#FFFFFF;stroke-width:1.9142;stroke-miterlimit:10;" points="1723.135,1672.836 
				1638.09,1672.836 1638.09,1592.214 1496.026,1592.214 			"/>
			<polyline style="fill:none;stroke:#FFFFFF;stroke-width:1.9142;stroke-miterlimit:10;" points="1723.135,1703.807 
				1568.404,1703.807 1568.404,1668.965 1490.975,1668.965 			"/>
			
				<line style="fill:none;stroke:#FFFFFF;stroke-width:1.9142;stroke-miterlimit:10;" x1="1682.998" y1="1753.183" x2="1577.695" y2="1753.183"/>
			<polyline style="fill:none;stroke:#FFFFFF;stroke-width:1.9142;stroke-miterlimit:10;" points="1679.127,1783.559 
				1613.313,1783.559 1613.313,1799.211 1529.69,1799.211 1529.69,1753.183 1474.715,1753.183 			"/>
			<polyline style="fill:none;stroke:#FFFFFF;stroke-width:1.9142;stroke-miterlimit:10;" points="1686.534,1828.083 
				1617.184,1828.083 1617.184,1864.331 1468.521,1864.331 			"/>
			<polyline style="fill:none;stroke:#FFFFFF;stroke-width:1.9142;stroke-miterlimit:10;" points="1682.998,1885.758 
				1647.381,1885.758 1647.381,1926.027 1519.677,1926.027 1519.677,1950.122 			"/>
			<polyline style="fill:none;stroke:#FFFFFF;stroke-width:1.9142;stroke-miterlimit:10;" points="1819.61,1672.836 
				1904.655,1672.836 1904.655,1592.214 2046.718,1592.214 			"/>
			<polyline style="fill:none;stroke:#FFFFFF;stroke-width:1.9142;stroke-miterlimit:10;" points="1819.61,1703.807 
				1974.34,1703.807 1974.34,1668.965 2051.769,1668.965 			"/>
			
				<line style="fill:none;stroke:#FFFFFF;stroke-width:1.9142;stroke-miterlimit:10;" x1="1859.746" y1="1753.183" x2="1965.049" y2="1753.183"/>
			<polyline style="fill:none;stroke:#FFFFFF;stroke-width:1.9142;stroke-miterlimit:10;" points="1863.617,1783.559 
				1929.432,1783.559 1929.432,1799.211 2013.055,1799.211 2013.055,1753.183 2068.029,1753.183 			"/>
			<polyline style="fill:none;stroke:#FFFFFF;stroke-width:1.9142;stroke-miterlimit:10;" points="1856.211,1828.083 
				1925.56,1828.083 1925.56,1864.331 2074.223,1864.331 			"/>
			<polyline style="fill:none;stroke:#FFFFFF;stroke-width:1.9142;stroke-miterlimit:10;" points="1859.746,1885.758 
				1895.363,1885.758 1895.363,1926.027 2023.067,1926.027 2023.067,1950.122 			"/>
			
				<line style="fill:none;stroke:#FFFFFF;stroke-width:1.9142;stroke-miterlimit:10;" x1="1699.818" y1="1894.224" x2="1699.818" y2="1953.873"/>
			<polyline style="fill:none;stroke:#FFFFFF;stroke-width:1.9142;stroke-miterlimit:10;" points="1741.844,1887.872 
				1741.844,1924.049 1765.847,1924.049 1765.847,1953.873 			"/>
			
				<line style="fill:none;stroke:#FFFFFF;stroke-width:1.9142;stroke-miterlimit:10;" x1="1808.188" y1="1891.185" x2="1808.188" y2="1948.236"/>
			<polyline style="fill:none;stroke:#FFFFFF;stroke-width:1.9142;stroke-miterlimit:10;" points="1851.018,1894.224 
				1851.018,1928.35 1827.402,1928.35 1827.402,1963.968 			"/>
			<circle style="fill:none;stroke:#FFFFFF;stroke-width:1.9142;stroke-miterlimit:10;" cx="1490.201" cy="1592.214" r="5.614"/>
			<path style="fill:none;stroke:#FFFFFF;stroke-width:1.9142;stroke-miterlimit:10;" d="M1480.264,1668.965
				c0,3.1,2.513,5.614,5.614,5.614c3.1,0,5.614-2.513,5.614-5.614s-2.513-5.614-5.614-5.614
				C1482.778,1663.351,1480.264,1665.864,1480.264,1668.965z"/>
			<path style="fill:none;stroke:#FFFFFF;stroke-width:1.9142;stroke-miterlimit:10;" d="M1567.63,1753.183
				c0,3.1,2.513,5.614,5.613,5.614c3.1,0,5.614-2.513,5.614-5.614c0-3.1-2.513-5.614-5.614-5.614
				C1570.143,1747.57,1567.63,1750.083,1567.63,1753.183z"/>
			<path style="fill:none;stroke:#FFFFFF;stroke-width:1.9142;stroke-miterlimit:10;" d="M1464.181,1753.183
				c0,3.1,2.513,5.614,5.614,5.614s5.614-2.513,5.614-5.614c0-3.1-2.513-5.614-5.614-5.614S1464.181,1750.083,1464.181,1753.183z"/>
			<path style="fill:none;stroke:#FFFFFF;stroke-width:1.9142;stroke-miterlimit:10;" d="M1457.294,1864.331
				c0,3.1,2.513,5.614,5.614,5.614c3.1,0,5.614-2.513,5.614-5.614c0-3.1-2.513-5.614-5.614-5.614
				C1459.807,1858.718,1457.294,1861.231,1457.294,1864.331z"/>
			<path style="fill:none;stroke:#FFFFFF;stroke-width:1.9142;stroke-miterlimit:10;" d="M1514.086,1955.758
				c0,3.1,2.513,5.614,5.614,5.614s5.614-2.513,5.614-5.614c0-3.1-2.513-5.614-5.614-5.614S1514.086,1952.658,1514.086,1955.758z"/>
			<path style="fill:none;stroke:#FFFFFF;stroke-width:1.9142;stroke-miterlimit:10;" d="M1694.204,1958.408
				c0,3.1,2.513,5.614,5.614,5.614s5.614-2.513,5.614-5.614c0-3.1-2.513-5.614-5.614-5.614S1694.204,1955.308,1694.204,1958.408z"/>
			<path style="fill:none;stroke:#FFFFFF;stroke-width:1.9142;stroke-miterlimit:10;" d="M1802.574,1952.794
				c0,3.1,2.513,5.614,5.614,5.614s5.614-2.513,5.614-5.614c0-3.1-2.513-5.614-5.614-5.614S1802.574,1949.694,1802.574,1952.794z"/>
			<path style="fill:none;stroke:#FFFFFF;stroke-width:1.9142;stroke-miterlimit:10;" d="M2017.454,1955.736
				c0,3.1,2.513,5.614,5.614,5.614c3.1,0,5.614-2.513,5.614-5.614s-2.513-5.614-5.614-5.614
				C2019.967,1950.122,2017.454,1952.635,2017.454,1955.736z"/>
			<path style="fill:none;stroke:#FFFFFF;stroke-width:1.9142;stroke-miterlimit:10;" d="M1760.233,1958.408
				c0,3.1,2.513,5.614,5.614,5.614s5.614-2.513,5.614-5.614c0-3.1-2.513-5.614-5.614-5.614S1760.233,1955.308,1760.233,1958.408z"/>
			<path style="fill:none;stroke:#FFFFFF;stroke-width:1.9142;stroke-miterlimit:10;" d="M1821.789,1969.635
				c0,3.1,2.513,5.614,5.613,5.614c3.1,0,5.614-2.513,5.614-5.614c0-3.1-2.513-5.614-5.614-5.614
				C1824.302,1964.021,1821.789,1966.535,1821.789,1969.635z"/>
			<path style="fill:none;stroke:#FFFFFF;stroke-width:1.9142;stroke-miterlimit:10;" d="M2074.223,1864.331
				c0,3.1,2.513,5.614,5.614,5.614c3.1,0,5.614-2.513,5.614-5.614c0-3.1-2.513-5.614-5.614-5.614
				C2076.737,1858.718,2074.223,1861.231,2074.223,1864.331z"/>
			<path style="fill:none;stroke:#FFFFFF;stroke-width:1.9142;stroke-miterlimit:10;" d="M2066.542,1753.183
				c0,3.1,2.513,5.614,5.614,5.614c3.1,0,5.614-2.513,5.614-5.614c0-3.1-2.513-5.614-5.614-5.614
				C2069.055,1747.57,2066.542,1750.083,2066.542,1753.183z"/>
			<path style="fill:none;stroke:#FFFFFF;stroke-width:1.9142;stroke-miterlimit:10;" d="M2051.769,1668.965
				c0,3.1,2.513,5.614,5.614,5.614c3.1,0,5.614-2.513,5.614-5.614s-2.513-5.614-5.614-5.614
				C2054.282,1663.351,2051.769,1665.864,2051.769,1668.965z"/>
			<circle style="fill:none;stroke:#FFFFFF;stroke-width:1.9142;stroke-miterlimit:10;" cx="2051.769" cy="1592.214" r="5.614"/>
			<path style="fill:none;stroke:#FFFFFF;stroke-width:1.9142;stroke-miterlimit:10;" d="M1964.831,1753.183
				c0,3.1,2.513,5.614,5.614,5.614s5.614-2.513,5.614-5.614c0-3.1-2.513-5.614-5.614-5.614S1964.831,1750.083,1964.831,1753.183z"/>
		</g>
	</g>
	<g>
		<ellipse style="fill:#93ACBF;" cx="973.843" cy="1889.476" rx="317.041" ry="92.645"/>
		<rect x="656.803" y="1758.4" style="fill:#93ACBF;" width="634.081" height="131.077"/>
		<ellipse style="fill:#586773;" cx="973.843" cy="1758.4" rx="317.041" ry="92.645"/>
		<path style="fill:#2EC6FC;" d="M1244.07,1670.53v104.95c0,5.149-3.04,9.802-7.769,11.838
			c-57.022,24.555-153.288,40.684-262.465,40.684c-109.136,0-205.4-16.129-262.422-40.684c-4.729-2.036-7.769-6.689-7.769-11.838
			v-104.95c0-7.11,5.763-12.873,12.873-12.873h514.68C1238.307,1657.657,1244.07,1663.421,1244.07,1670.53z"/>
		<ellipse style="fill:#93ACBF;" cx="973.843" cy="1700.59" rx="317.041" ry="92.645"/>
		<rect x="656.803" y="1569.514" style="fill:#93ACBF;" width="634.081" height="131.077"/>
		<ellipse style="fill:#586773;" cx="973.843" cy="1569.514" rx="317.041" ry="92.645"/>
		<path style="fill:#2EC6FC;" d="M1244.07,1485.782v101.465c0,5.989-3.531,11.429-9.045,13.768
			c-57.175,24.248-152.822,40.139-261.19,40.139c-108.326,0-203.972-15.89-261.147-40.139c-5.513-2.338-9.045-7.779-9.045-13.768
			v-101.465c0-8.27,6.704-14.973,14.973-14.973h510.48C1237.367,1470.809,1244.07,1477.512,1244.07,1485.782z"/>
		<ellipse style="fill:#93ACBF;" cx="973.843" cy="1516.059" rx="317.041" ry="92.645"/>
		<rect x="656.803" y="1384.982" style="fill:#93ACBF;" width="634.081" height="131.077"/>
		<path style="fill:#586773;" d="M1290.88,1384.989c0,17.766-17.113,34.356-46.81,48.465
			c-55.78,26.475-155.931,44.154-270.235,44.154c-114.26,0-214.411-17.635-270.192-44.154
			c-29.697-14.109-46.854-30.699-46.854-48.465c0-2.526,0.349-5.008,1.045-7.49c4.049-14.936,20.292-28.87,45.809-40.975
			c55.78-26.519,155.932-44.197,270.192-44.197c114.303,0,214.455,17.679,270.235,44.197c25.473,12.105,41.715,26.039,45.765,40.975
			C1290.532,1379.981,1290.88,1382.463,1290.88,1384.989z"/>
		<path style="fill:#586773;" d="M1244.07,1321.545v96.929c-55.78,26.518-155.931,44.197-270.235,44.197
			c-114.26,0-214.411-17.679-270.192-44.197v-96.929c24.646-11.713,57.914-21.729,97.277-29.218
			c49.728-9.493,109.121-14.979,172.914-14.979c63.792,0,123.186,5.487,172.914,14.979
			C1186.113,1299.816,1219.424,1309.831,1244.07,1321.545z"/>
		<path style="fill:#2EC6FC;" d="M1244.07,1305.681v104.151c0,5.341-3.152,10.174-8.061,12.281
			c-57.058,24.484-153.182,40.558-262.174,40.558c-108.95,0-205.073-16.074-262.131-40.558c-4.909-2.106-8.061-6.939-8.061-12.281
			v-104.151c0-7.375,5.979-13.354,13.354-13.354h513.718C1238.092,1292.327,1244.07,1298.305,1244.07,1305.681z"/>
		<ellipse style="fill:#93ACBF;" cx="973.843" cy="1332.935" rx="317.041" ry="92.645"/>
		<rect x="656.803" y="1201.858" style="fill:#93ACBF;" width="634.081" height="131.077"/>
		<ellipse style="fill:#BBDBF3;" cx="973.843" cy="1201.858" rx="317.041" ry="92.645"/>
		<circle style="fill:#BBDBF3;" cx="1116.768" cy="1332.182" r="11.999"/>
		<circle style="fill:#BBDBF3;" cx="1197.79" cy="1316.33" r="11.999"/>
		<circle style="fill:#2EC6FC;" cx="1157.279" cy="1326.237" r="11.999"/>
		
			<ellipse transform="matrix(0.1602 -0.9871 0.9871 0.1602 -547.4084 2366.0396)" style="fill:#BBDBF3;" cx="1116.768" cy="1504.72" rx="11.999" ry="11.999"/>
		<circle style="fill:#586773;" cx="1197.79" cy="1488.868" r="11.999"/>
		<circle style="fill:#BBDBF3;" cx="1157.279" cy="1498.776" r="11.999"/>
		<circle style="fill:#586773;" cx="1116.768" cy="1690.322" r="11.999"/>
		<circle style="fill:#2EC6FC;" cx="1197.79" cy="1674.47" r="11.999"/>
		<circle style="fill:#BBDBF3;" cx="1157.279" cy="1684.378" r="11.999"/>
		<circle style="fill:#2EC6FC;" cx="1116.768" cy="1875.924" r="11.999"/>
		<circle style="fill:#BBDBF3;" cx="1197.79" cy="1860.072" r="11.999"/>
		<circle style="fill:#2EC6FC;" cx="1157.279" cy="1869.98" r="11.999"/>
	</g>
	<g>
		<path style="fill:#322A28;" d="M1463.15,624.386h97.471c9.418,0,18.724,1.119,27.9,3.352c9.184,2.242,17.363,5.889,24.552,10.949
			c7.172,5.065,13,11.6,17.475,19.6c4.475,8.009,6.713,17.657,6.713,28.962c0,14.123-4.007,25.779-12.012,34.963
			c-8.005,9.18-18.481,15.775-31.429,19.778v0.703c7.771,0.945,15.012,3.126,21.725,6.535c6.704,3.417,12.41,7.771,17.128,13.07
			c4.701,5.295,8.412,11.422,11.118,18.364c2.706,6.947,4.068,14.422,4.068,22.423c0,13.659-2.715,25.02-8.126,34.083
			c-5.42,9.063-12.541,16.365-21.369,21.894c-8.829,5.537-18.95,9.479-30.371,11.834c-11.422,2.355-23.017,3.53-34.786,3.53h-90.056
			V624.386z M1507.649,726.098h40.614c14.83,0,25.957-2.884,33.372-8.655c7.415-5.767,11.127-13.36,11.127-22.778
			c0-10.828-3.833-18.893-11.474-24.192c-7.658-5.299-19.956-7.944-36.911-7.944h-36.728V726.098z M1507.649,836.283h40.969
			c5.646,0,11.708-0.351,18.186-1.058c6.47-0.707,12.419-2.35,17.831-4.943c5.42-2.589,9.895-6.296,13.425-11.127
			c3.53-4.822,5.299-11.357,5.299-19.6c0-13.182-4.302-22.367-12.896-27.548c-8.594-5.173-21.95-7.771-40.085-7.771h-42.73V836.283z
			"/>
		<path style="fill:#322A28;" d="M1772.874,624.386h38.497l107.713,250.039h-50.856l-23.303-57.213h-108.424l-22.601,57.213h-49.798
			L1772.874,624.386z M1829.384,779.07l-38.498-101.712l-39.2,101.712H1829.384z"/>
		<path style="fill:#322A28;" d="M2118.614,683.008c-9.184-9.887-18.074-16.478-26.668-19.778
			c-8.594-3.291-17.25-4.943-25.957-4.943c-12.948,0-24.665,2.298-35.132,6.886c-10.485,4.592-19.487,10.949-27.024,19.071
			c-7.536,8.126-13.364,17.605-17.475,28.433c-4.128,10.832-6.184,22.484-6.184,34.964c0,13.417,2.055,25.779,6.184,37.08
			c4.111,11.3,9.939,21.074,17.475,29.313c7.536,8.243,16.539,14.717,27.024,19.422c10.468,4.714,22.184,7.064,35.132,7.064
			c10.121,0,19.956-2.411,29.496-7.237c9.531-4.822,18.42-12.536,26.659-23.134l36.729,26.135
			c-11.3,15.541-25.073,26.842-41.316,33.905c-16.244,7.064-33.554,10.594-51.914,10.594c-19.314,0-37.032-3.122-53.154-9.358
			c-16.131-6.236-30.016-15.064-41.672-26.49c-11.656-11.418-20.779-25.129-27.371-41.143c-6.6-16.01-9.887-33.78-9.887-53.328
			c0-20.008,3.287-38.198,9.887-54.563c6.591-16.361,15.715-30.311,27.371-41.85c11.656-11.534,25.541-20.424,41.672-26.664
			c16.122-6.236,33.84-9.358,53.154-9.358c16.946,0,32.661,3.001,47.144,9.002c14.483,6.006,27.952,16.192,40.44,30.549
			L2118.614,683.008z"/>
		<path style="fill:#322A28;" d="M2188.897,624.386h44.499v105.948h2.116l103.481-105.948h60.04L2282.135,739.87l124.668,134.555
			h-62.512l-108.425-122.903h-2.472v122.903h-44.499V624.386z"/>
		<path style="fill:#322A28;" d="M2535.348,624.386h165.637v40.258h-121.138v61.454h114.781v40.258h-114.781v67.806h127.495v40.262
			h-171.994V624.386z"/>
		<path style="fill:#322A28;" d="M2751.122,624.386h58.982l121.13,185.762h0.711V624.386h44.499v250.039h-56.51l-123.61-191.768
			h-0.703v191.768h-44.499V624.386z"/>
		<path style="fill:#322A28;" d="M3032.243,624.386h98.529c16.478,0,32.375,2.532,47.682,7.593
			c15.299,5.065,28.836,12.775,40.614,23.13c11.769,10.364,21.187,23.372,28.255,39.026c7.06,15.658,10.589,34.079,10.589,55.27
			c0,21.425-4.059,39.968-12.185,55.622c-8.117,15.663-18.594,28.606-31.429,38.849s-27.076,17.896-42.73,22.956
			c-15.663,5.065-31.022,7.593-46.086,7.593h-93.239V624.386z M3109.94,834.163c13.885,0,27.015-1.587,39.374-4.766
			c12.367-3.178,23.138-8.122,32.314-14.834c9.184-6.708,16.426-15.415,21.725-26.135c5.299-10.711,7.944-23.715,7.944-39.022
			c0-15.064-2.359-28.017-7.059-38.849c-4.718-10.828-11.248-19.6-19.6-26.313c-8.36-6.708-18.256-11.652-29.669-14.83
			c-11.422-3.179-23.962-4.77-37.613-4.77h-40.614v169.518H3109.94z"/>
		<path style="fill:#322A28;" d="M1348.378,952.972h98.529c16.478,0,32.375,2.532,47.682,7.593
			c15.298,5.065,28.836,12.775,40.614,23.13c11.769,10.364,21.187,23.373,28.255,39.027c7.059,15.658,10.589,34.079,10.589,55.27
			c0,21.426-4.059,39.968-12.185,55.621c-8.118,15.663-18.594,28.607-31.429,38.849c-12.835,10.242-27.076,17.896-42.73,22.956
			c-15.663,5.065-31.022,7.593-46.086,7.593h-93.239V952.972z M1426.075,1162.749c13.885,0,27.015-1.587,39.373-4.766
			c12.367-3.178,23.138-8.122,32.314-14.834c9.184-6.708,16.426-15.416,21.725-26.135c5.299-10.711,7.944-23.715,7.944-39.022
			c0-15.064-2.359-28.017-7.059-38.849c-4.718-10.828-11.248-19.6-19.6-26.313c-8.36-6.708-18.256-11.652-29.669-14.83
			c-11.422-3.179-23.962-4.77-37.613-4.77h-40.614v169.518H1426.075z"/>
		<path style="fill:#322A28;" d="M1616.421,952.972h165.637v40.258H1660.92v61.454h114.781v40.258H1660.92v67.806h127.495v40.262
			h-171.994V952.972z"/>
		<path style="fill:#322A28;" d="M1803.245,952.972h51.212l68.158,188.94l70.282-188.94h48.029l-101.009,250.039h-38.489
			L1803.245,952.972z"/>
		<path style="fill:#322A28;" d="M2067.767,952.972h165.637v40.258h-121.138v61.454h114.781v40.258h-114.781v67.806h127.495v40.262
			h-171.994V952.972z"/>
		<path style="fill:#322A28;" d="M2283.54,952.972h44.499v209.776h106.3v40.262H2283.54V952.972z"/>
		<path style="fill:#322A28;" d="M2453.419,1079.05c0-20.008,3.287-38.198,9.887-54.563c6.591-16.361,15.715-30.311,27.371-41.849
			c11.656-11.535,25.541-20.424,41.672-26.664c16.122-6.236,33.84-9.358,53.154-9.358c19.539-0.234,37.431,2.645,53.675,8.651
			c16.252,6.006,30.25,14.778,42.027,26.313c11.769,11.539,20.953,25.428,27.553,41.672c6.582,16.244,9.887,34.378,9.887,54.386
			c0,19.548-3.304,37.322-9.887,53.328c-6.6,16.014-15.784,29.79-27.553,41.32c-11.777,11.539-25.775,20.545-42.027,27.019
			c-16.244,6.474-34.135,9.826-53.675,10.064c-19.314,0-37.032-3.122-53.154-9.358c-16.131-6.236-30.016-15.064-41.672-26.49
			c-11.656-11.417-20.78-25.129-27.371-41.143C2456.706,1116.368,2453.419,1098.598,2453.419,1079.05z M2500.034,1076.227
			c0,13.416,2.055,25.779,6.184,37.079c4.111,11.3,9.939,21.074,17.475,29.313c7.536,8.243,16.539,14.717,27.024,19.422
			c10.468,4.714,22.185,7.064,35.133,7.064c12.948,0,24.726-2.35,35.323-7.064c10.589-4.705,19.652-11.179,27.188-19.422
			c7.536-8.239,13.364-18.013,17.484-29.313c4.119-11.3,6.183-23.663,6.183-37.079c0-12.48-2.064-24.132-6.183-34.964
			c-4.12-10.828-9.948-20.307-17.484-28.433c-7.536-8.122-16.599-14.479-27.188-19.071c-10.598-4.588-22.375-6.886-35.323-6.886
			c-12.948,0-24.665,2.298-35.133,6.886c-10.485,4.592-19.487,10.949-27.024,19.071c-7.536,8.126-13.364,17.605-17.475,28.433
			C2502.089,1052.095,2500.034,1063.747,2500.034,1076.227z"/>
		<path style="fill:#322A28;" d="M2761.017,952.972h84.054c12.003,0,23.598,1.179,34.786,3.53
			c11.179,2.355,21.013,6.301,29.487,11.829c8.482,5.537,15.246,12.952,20.311,22.249c5.056,9.306,7.588,20.901,7.588,34.79
			c0,15.775-2.706,28.489-8.117,38.142c-5.42,9.657-12.714,17.128-21.898,22.423c-9.184,5.299-19.834,8.889-31.958,10.771
			c-12.133,1.891-24.786,2.827-37.969,2.827h-31.785v103.477h-44.499V952.972z M2832.358,1061.392c6.357,0,12.948-0.23,19.773-0.707
			c6.825-0.468,13.122-1.882,18.897-4.236c5.767-2.35,10.477-5.884,14.128-10.598c3.643-4.705,5.472-11.3,5.472-19.774
			c0-7.771-1.648-13.95-4.943-18.542c-3.304-4.592-7.536-8.122-12.714-10.598c-5.186-2.472-10.945-4.059-17.302-4.766
			c-6.357-0.707-12.489-1.058-18.368-1.058h-31.785v70.278H2832.358z"/>
		<path style="fill:#322A28;" d="M2976.799,952.972h165.637v40.258h-121.138v61.454h114.781v40.258h-114.781v67.806h127.495v40.262
			h-171.994V952.972z"/>
		<path style="fill:#322A28;" d="M3192.581,952.972h86.882c12.003,0,23.598,1.119,34.786,3.352
			c11.179,2.242,21.126,6.067,29.842,11.478c8.707,5.42,15.654,12.714,20.832,21.898c5.177,9.18,7.771,20.836,7.771,34.963
			c0,18.13-5.004,33.32-15.003,45.557c-10.017,12.246-24.318,19.661-42.912,22.25l66.397,110.541h-53.683l-57.924-105.948h-32.487
			v105.948h-44.499V952.972z M3271.693,1058.921c6.357,0,12.714-0.295,19.071-0.885c6.357-0.585,12.185-1.995,17.475-4.237
			c5.299-2.233,9.592-5.65,12.896-10.242c3.296-4.592,4.943-11.001,4.943-19.249c0-7.294-1.535-13.182-4.588-17.657
			c-3.07-4.471-7.068-7.823-12.012-10.065c-4.943-2.233-10.416-3.708-16.426-4.414c-6.001-0.707-11.829-1.058-17.475-1.058h-38.498
			v67.807H3271.693z"/>
	</g>
	<g>
		<g>
			<path style="fill:#F9E181;" d="M3608.07,1391.811l-225.185-137.739c-22.024,10.356-46.623,16.147-72.57,16.147h-0.001
				c-25.948,0-50.547-5.79-72.572-16.147l-225.184,137.739c0,0-30.617,457.697,297.755,595.714c0,0,0.001,0,0.001,0
				C3638.685,1849.507,3608.07,1391.811,3608.07,1391.811z"/>
			<path style="fill:#F9ECB8;" d="M3564.099,1422.18l-188.818-115.46c-20.645,8.181-42.448,12.349-64.985,12.349v0.006
				c-22.523-0.002-44.325-4.157-64.961-12.368l-188.789,115.477c-0.783,28.65-0.656,115.089,23.698,210.517
				c17.249,67.593,43.118,126.432,76.885,174.881c40.054,57.47,91.558,100.511,153.167,128.031v0.001c0,0,0.001,0,0.001-0.001
				c0.005,0.002,0.01,0.005,0.016,0.008c0.001,0,0.001,0,0.001,0v-0.015c61.619-27.515,113.131-70.539,153.182-128.031
				c33.765-48.43,59.62-107.278,76.87-174.887C3564.756,1537.253,3564.871,1450.813,3564.099,1422.18z"/>
			<polygon style="fill:#6ADB6A;" points="3421.771,1456.204 3302.139,1662.242 3301.089,1664.049 3241.836,1574.083 
				3202.575,1599.962 3282.737,1721.609 3302.403,1721.051 3322.696,1720.489 3462.428,1479.803 			"/>
		</g>
		<path style="fill:#FDAE97;" d="M3389.859,1246.761c0,0-15.766,2.877-16.5,7.407c-0.735,4.531,2.572,3.229,2.572,3.229
			s-8.885,4.984-8.552,9.01c0.335,4.025,6.452,2.31,6.452,2.31s-4.131,5.089-1.514,8.689c2.616,3.6,18.955,1.106,26.566,1.169
			c7.612,0.063,25.341,1.618,26.879,3.766c1.539,2.149-21.849,5.491-22.168,10.348c-0.319,4.857,33.419,6.818,45.754,6.087
			c5.305-0.315,11.665,0.079,17.197,0.63l9.071-40.364c-6.481-2.436-37.376-13.959-50.752-17.322
			c-14.984-3.768-36.111-2.279-37.137,1.082C3386.701,1246.163,3389.859,1246.761,3389.859,1246.761z"/>
		<path style="fill:#F74242;" d="M3614.829,1356.348c18.304,3.981,36.971-9.728,41.48-30.465
			c4.511-20.737-6.776-40.961-25.08-44.942l-159.976-28.134l-13.33,52.587L3614.829,1356.348z"/>
		<rect x="3678.502" y="1510.817" style="fill:#E5F0F8;" width="141.802" height="209.684"/>
		<path style="fill:#F74242;" d="M3599.848,1351.594L3599.848,1351.594c19.164,10.871,43.738,4.086,54.609-15.078l72.271-127.401
			c10.871-19.164,4.086-43.738-15.078-54.609l0,0c-19.164-10.871-43.738-4.086-54.609,15.078l-72.271,127.401
			C3573.899,1316.149,3580.684,1340.723,3599.848,1351.594z"/>
		<path style="fill:#0775EF;" d="M3678.502,1396.411l-42.141,241.137c-2.151,6.06-3.382,12.555-3.382,19.352
			c0,31.998,25.94,57.938,57.938,57.938c31.998,0,57.938-25.939,57.938-57.938l67.823-260.489H3678.502z"/>
		<polygon style="fill:#088CFF;" points="3869.861,1394.175 3736.05,1372.982 3746.653,1565.414 3763.012,1605.128 
			3769.637,1662.166 3885.331,1659.391 		"/>
		<path style="fill:#0775EF;" d="M3633.619,1665.055c-0.377-2.672-0.64-5.38-0.64-8.155c0-31.998,25.939-57.938,57.938-57.938
			s57.938,25.94,57.938,57.938l-3.426,273.738l-97.678-0.057L3633.619,1665.055z"/>
		<path style="fill:#088CFF;" d="M3770.281,1654.011c5.006-31.604,34.684-53.167,66.288-48.161
			c31.604,5.006,46.861,20.931,48.763,53.542c4.416,75.708,10.717,270.044,10.717,270.044l-101.349-0.261l-25.063-267.009
			C3769.682,1659.468,3769.846,1656.752,3770.281,1654.011z"/>
		<polygon style="fill:#FFFFFF;" points="3739.773,1123.507 3678.502,1151.097 3678.502,1399.86 3870.193,1399.86 
			3885.421,1153.396 3802.448,1118.957 		"/>
		<path style="fill:#FDAE97;" d="M3739.79,1084.638v38.869c0,0,2.323,8.393,22.083,8.474c19.72,0.041,40.58-13.038,40.58-13.038
			l-6.111-84.99L3739.79,1084.638z"/>
		<polygon style="fill:#E89780;" points="3739.773,1118.175 3780.141,1076.268 3739.773,1075.739 		"/>
		<path style="fill:#FDAE97;" d="M3746.563,996.711c0,0-7.491,22.627-12.805,38.678l-4.392,13.267
			c-3.47,10.482-5.678,27.004,4.928,34.507c10.568,7.49,28.4,7.943,43.753-0.579c15.366-8.561,58.766-55.651,30.691-87.649
			C3780.624,962.924,3749.167,991.565,3746.563,996.711z"/>
		<path style="fill:#322A28;" d="M3805.756,991.818c0,0-35.729-33.414-49.684-23.857c-13.955,9.557,0.77,19.382,0.77,19.382
			s-19.326-9.033-23.033,4.785s52.748,11.965,52.748,11.965s-19.191,2.037-11.529,11.228c7.662,9.191,21.285,5.021,21.285,5.021
			s7.757,8.639-2.128,33.249c-9.885,24.61,6.016,34.043,6.016,34.043s8.068-37.583,18.784-45.319
			C3829.702,1034.579,3831.411,993.253,3805.756,991.818z"/>
		<g>
			<path style="fill:#FDAE97;" d="M3789.893,1058.635c-6.214,5.054-8.8,9.202-4.832,14.081c3.968,4.878,12.67,6.633,18.883,1.58
				c6.214-5.054,8.035-13.105,4.067-17.984C3804.043,1051.433,3796.106,1053.582,3789.893,1058.635z"/>
			<path style="fill:none;stroke:#E89780;stroke-width:0.9762;stroke-miterlimit:10;" d="M3803.19,1062.492
				c0,0-4.914-2.482-10.645,2.969c0,0,3.513,0.331,7.236,2.395"/>
		</g>
		<path style="fill:#322A28;" d="M3766.718,1036.258c-0.805,2.431-2.732,3.98-4.305,3.459c-1.573-0.521-2.195-2.914-1.39-5.345
			c0.805-2.432,2.732-3.98,4.305-3.46C3766.9,1031.434,3767.522,1033.827,3766.718,1036.258z"/>
		<path style="fill:none;stroke:#332B27;stroke-width:1.2223;stroke-miterlimit:10;" d="M3757.183,1063.529
			c0,0-6.957,6.837-17.017,1.362"/>
		<path style="fill:none;stroke:#332B27;stroke-width:1.2223;stroke-miterlimit:10;" d="M3755.501,1034.199l-10.506,13.75
			c-1.064,1.393-1.043,3.332,0.052,4.701l3.431,4.293"/>
		<path style="fill:none;stroke:#332B27;stroke-width:1.2223;stroke-miterlimit:10;" d="M3775.057,1030.698
			c0,0-4.609-6.181-11.207-5.414"/>
		<path style="fill:#322A28;" d="M3737.308,1026.522c-0.805,2.431-0.182,4.825,1.391,5.345c1.573,0.521,3.5-1.028,4.305-3.459
			c0.805-2.431,0.182-4.825-1.391-5.345C3740.041,1022.542,3738.113,1024.091,3737.308,1026.522z"/>
		<path style="fill:none;stroke:#332B27;stroke-width:1.2223;stroke-miterlimit:10;" d="M3738.6,1018.36
			c0,0,5.465-2.578,10.301,1.974"/>
		<path style="fill:#F74242;" d="M3917.035,1370.814L3917.035,1370.814c21.333-5.509,34.28-27.471,28.77-48.803l-36.624-141.82
			c-5.509-21.333-27.471-34.28-48.803-28.77v0c-21.333,5.509-34.28,27.471-28.771,48.803l36.625,141.82
			C3873.74,1363.377,3895.702,1376.323,3917.035,1370.814z"/>
		<path style="fill:#F74242;" d="M3810.691,1122.378c0,0-36.73,80.242-39.57,155.912c-2.839,75.67,0,213.094,0,213.094h114.3
			v-337.989L3810.691,1122.378z"/>
		<path style="fill:#E89780;" d="M3758.311,1051.076c0.009,2.481,4.015,4.479,8.949,4.462c4.934-0.017,8.927-2.043,8.918-4.524
			c-0.009-2.481-4.015-4.479-8.949-4.462C3762.295,1046.569,3758.303,1048.595,3758.311,1051.076z"/>
		<path style="fill:#F74242;" d="M3735.05,1125.634c0,0-16.638,146.825-15.926,191.85c0.712,45.025-3.562,162.575-3.562,162.575
			h-55.311c0,0-2.081-69.866,0-113.646c2.082-43.78,18.25-215.316,18.25-215.316L3735.05,1125.634z"/>
		<path style="fill:#E89780;" d="M3733.758,1035.39l-2.855,8.625c3.495,1.629,6.806,1.609,7.937-0.119
			C3740.123,1041.832,3737.86,1038.036,3733.758,1035.39z"/>
		<polygon style="fill:#FDAE97;" points="3737.78,1954.404 3736.836,1930.633 3657.556,1930.587 3658.211,1954.404 		"/>
		<polygon style="fill:#E89780;" points="3658.116,1947.236 3736.836,1930.633 3657.556,1930.587 		"/>
		<polygon style="fill:#FDAE97;" points="3888.398,1954.404 3888.398,1929.435 3812.751,1929.435 3815.299,1954.404 		"/>
		<polygon style="fill:#E89780;" points="3814.318,1944.796 3888.398,1929.435 3812.751,1929.435 		"/>
		
			<line style="fill:none;stroke:#332B27;stroke-width:1.6758;stroke-miterlimit:10;" x1="3670.428" y1="1229.118" x2="3660.252" y2="1327.463"/>
		<path style="fill:#FDAE97;" d="M3825.899,1578.988l13.527-7.688c1.928-1.096,2.795-3.415,2.058-5.507l-6.506-18.485l-7.018,27.277
			c-0.406,1.577-1.944,2.586-3.552,2.33l-2.327-0.371c-1.655-0.263-2.814-1.773-2.642-3.44l5.074-49.157l15.176-24.701
			l53.852,12.748c-4.273,13.853-5.042,51.068-5.18,64.638c-0.031,3.041-1.946,5.74-4.803,6.785l-27.292,9.984
			c-4.265,1.56-8.991,1.239-13.006-0.882l-17.294-9.137C3824.218,1582.458,3824.179,1579.966,3825.899,1578.988z"/>
		<path style="fill:#F74242;" d="M3870.588,1324.089c3.763-18.48,23.972-30.112,44.909-25.848
			c20.937,4.264,34.988,22.873,31.223,41.353l-48.231,176.334l-66.511-15.584
			C3831.867,1500.321,3870.588,1324.089,3870.588,1324.089z"/>
		
			<ellipse transform="matrix(0.4134 -0.9105 0.9105 0.4134 1263.8424 4035.3525)" style="fill:none;stroke:#F7E7DC;stroke-width:1.3802;stroke-miterlimit:10;" cx="3763.87" cy="1036.773" rx="9.127" ry="7.347"/>
		<path style="fill:none;stroke:#F7E7DC;stroke-width:1.3802;stroke-miterlimit:10;" d="M3735.23,1026.542
			c-1.967,4.332-0.911,9.046,2.358,10.53c3.269,1.484,7.513-0.824,9.48-5.156s0.911-9.046-2.358-10.53
			C3741.441,1019.902,3737.197,1022.211,3735.23,1026.542z"/>
		
			<line style="fill:none;stroke:#F7E7DC;stroke-width:1.3802;stroke-miterlimit:10;" x1="3757.603" y1="1032.907" x2="3747.901" y2="1029.229"/>
		<path style="fill:#332B27;" d="M3740.281,1987.525h-111.038l0.13-4.952c0-0.717,0.065-1.433,0.131-2.151
			c1.433-14.662,13.749-26,28.736-26h79.564l1.955,26L3740.281,1987.525z"/>
		<path style="fill:#FFFFFF;" d="M3740.281,1987.525h-111.038l0.13-4.952c0-0.717,0.065-1.433,0.131-2.151h110.255
			L3740.281,1987.525z"/>
		
			<path style="fill:none;stroke:#FFFFFF;stroke-width:0.6728;stroke-linecap:round;stroke-linejoin:round;stroke-miterlimit:10;" d="
			M3661.088,1962.627c0,0-2.419-10.583-8.391-7.711c-5.972,2.873,8.013,8.089,8.013,8.089l-8.315,5.745"/>
		
			<path style="fill:none;stroke:#FFFFFF;stroke-width:0.6728;stroke-linecap:round;stroke-linejoin:round;stroke-miterlimit:10;" d="
			M3661.088,1962.627c0,0,2.419-10.583,8.391-7.711c5.972,2.873-8.013,8.089-8.013,8.089l8.315,5.745"/>
		<path style="fill:#332B27;" d="M3919.935,1987.525h-102.371l-0.522-7.103l-1.76-26h73.115c15.377,0,28.345,11.143,30.822,26
			c0.261,1.043,0.391,2.151,0.455,3.258L3919.935,1987.525z"/>
		<path style="fill:#FFFFFF;" d="M3919.935,1987.525h-102.371l-0.522-7.103h102.177c0.261,1.043,0.391,2.151,0.455,3.258
			L3919.935,1987.525z"/>
		
			<path style="fill:none;stroke:#FFFFFF;stroke-width:0.6728;stroke-linecap:round;stroke-linejoin:round;stroke-miterlimit:10;" d="
			M3894.247,1962.627c0,0-2.419-10.583-8.391-7.711c-5.972,2.873,8.013,8.089,8.013,8.089l-8.315,5.745"/>
		
			<path style="fill:none;stroke:#FFFFFF;stroke-width:0.6728;stroke-linecap:round;stroke-linejoin:round;stroke-miterlimit:10;" d="
			M3894.247,1962.627c0,0,2.419-10.583,8.391-7.711c5.972,2.873-8.013,8.089-8.013,8.089l8.315,5.745"/>
		<polyline style="fill:none;stroke:#332B27;stroke-width:1.6758;stroke-miterlimit:10;" points="3831.978,1500.344 
			3868.231,1342.044 3843.844,1247.609 		"/>
	</g>
	<g>
		<path style="fill:#322A28;" d="M828.557,910.863c0,0-23.052-29.379,11.266-43.67c17.31-7.208,22.213-16.552,17.361-29.647
			c-4.852-13.095,0.568-27.306,14.298-34.885c13.729-7.579,19.642-30.131,48.3-16.9c0,0,36.14,14.178,34.681,36.257
			c-1.459,22.079-1.165,20.205,6.546,35.225c7.711,15.02-8.358,32.984-8.958,41.991c-0.587,8.802,3.274,11.629,3.274,11.629H828.557
			z"/>
		<path style="fill:#F74242;" d="M1052.631,1109.932L1052.631,1109.932c-15.902,9.761-36.9,4.737-46.661-11.166l-73.372-119.532
			c-9.761-15.902-4.737-36.899,11.166-46.661h0c15.902-9.761,36.899-4.737,46.661,11.166l73.372,119.532
			C1073.558,1079.174,1068.534,1100.171,1052.631,1109.932z"/>
		<path style="fill:#088CFF;" d="M828.151,1152.113c0,0-9.886,11.235-13.819,20.397c-3.933,9.162,43.019,4.109,43.019,4.109
			l-5.118-44.015L828.151,1152.113z"/>
		<path style="fill:#0775EF;" d="M1141.265,1344.951L1141.265,1344.951c-18.339,25.569-54.263,31.485-79.832,13.146
			l-178.596-128.092c-25.569-18.339-31.485-54.263-13.146-79.832v0c18.339-25.569,54.263-31.485,79.832-13.146l178.596,128.092
			C1153.687,1283.458,1159.603,1319.382,1141.265,1344.951z"/>
		<path style="fill:#088CFF;" d="M1089.817,1360.979L1089.817,1360.979c-18.339,25.569-54.263,31.485-79.832,13.146
			l-178.596-128.092c-25.569-18.339-31.485-54.263-13.146-79.832l0,0c18.339-25.569,54.263-31.485,79.832-13.146l178.596,128.092
			C1102.239,1299.485,1108.155,1335.41,1089.817,1360.979z"/>
		<path style="fill:#F74242;" d="M876.71,913.699l-59.371,27.961c0,0,13.2,151.767,14.565,168.485
			c1.365,16.719-3.753,41.968-3.753,41.968h142.28c0,0-1.706-81.888,7.847-104.748c6.472-15.487,10.918-24.908,7.165-42.65
			c-3.753-17.742-16.378-44.356-11.942-75.064l-36.508-14.672L876.71,913.699z"/>
		<polygon style="fill:#A06753;" points="1135.738,1625.242 1124.804,1586.698 1184.243,1578.112 1189.053,1616.984 		"/>
		<path style="fill:#A06753;" d="M937.008,845.958v69.034c0,0,0,0.844-0.169,2.193c-0.709,5.635-4.353,20.11-23.113,19.907
			c-17.14-0.202-29.118-12.788-34.213-19.401c-1.856-2.362-2.801-3.981-2.801-3.981l8.638-67.752H937.008z"/>
		<polygon style="fill:#A06753;" points="934.876,1618.523 987.827,1628.747 999.057,1595.158 940.258,1586.388 		"/>
		<polygon style="fill:#824C3A;" points="936.993,914.979 906.301,875.792 936.993,869.881 		"/>
		<path style="fill:#A06753;" d="M938.415,887.818c-12.222,3.982-29.164-0.869-41.153-13.459
			c-11.989-12.59-38.924-59.726-2.972-81.681c35.992-21.944,57.246,14.388,58.177,20.013c0,0,0.357,19.826,0.573,33.799
			c0.082,3.554,0.135,6.713,0.172,9.093c-0.012,0.385,0.026,0.74,0.024,1.083C953.409,867.612,950.626,883.876,938.415,887.818z"/>
		<path style="fill:#F74242;" d="M758.091,1128.781L758.091,1128.781c-16.836-8.044-24.03-28.401-15.986-45.237l60.464-126.552
			c8.044-16.836,28.4-24.03,45.237-15.986l0,0c16.836,8.044,24.03,28.4,15.986,45.237l-60.464,126.552
			C795.284,1129.632,774.927,1136.825,758.091,1128.781z"/>
		<path style="fill:#0775EF;" d="M1079.449,1266.829c-28.511,10.233-43.328,41.642-33.094,70.152l71.738,258.176l88.4-13.748
			l-53.759-266.15l-0.021,0.004c-0.3-5.116-1.292-10.273-3.11-15.341C1139.368,1271.413,1107.96,1256.596,1079.449,1266.829z"/>
		<polygon style="fill:#322A28;" points="925.67,1659.016 950.736,1663.436 955.197,1647.538 965.996,1666.126 1025.131,1676.553 
			987.827,1628.747 934.876,1618.523 		"/>
		<path style="fill:#088CFF;" d="M1055.614,1270.395c-29.831-5.26-58.279,14.659-63.539,44.49l-67.885,275.411l84.672,16.348
			l86.352-257.84l-0.02-0.007c2.278-4.59,3.976-9.561,4.911-14.863C1105.365,1304.103,1085.446,1275.655,1055.614,1270.395z"/>
		
			<line style="fill:none;stroke:#D1DDFF;stroke-width:3.3741;stroke-miterlimit:10;" x1="971.12" y1="1636.335" x2="994.776" y2="1640.429"/>
		<path style="fill:#322A28;" d="M919.781,785.76c0,0,32.78,1.058,36.987,32.466l-16.643,0.808c0,0,0.263-10.77-8.105-15.483
			c0,0,5.895,8.224,3.877,16.274l-19.277,1.911c0,0-0.845-11.696,0.188-16.318c0,0-4.658,10.689-4.807,17.072l-13.566,3.717
			c0,0,0.09,10.924-4.824,14.846c-4.913,3.922-11.474,21.442-11.474,21.442s-14.078-38.616-7.855-50.916
			C880.504,799.278,891.639,779.528,919.781,785.76z"/>
		
			<line style="fill:none;stroke:#D1DDFF;stroke-width:3.3741;stroke-miterlimit:10;" x1="975.401" y1="1645.491" x2="999.057" y2="1649.585"/>
		<polygon style="fill:#322A28;" points="1140.25,1665.953 1165.38,1661.914 1164.384,1645.432 1180.679,1659.454 
			1239.965,1649.923 1189.053,1616.984 1135.738,1625.242 		"/>
		
			<line style="fill:none;stroke:#D1DDFF;stroke-width:3.3741;stroke-miterlimit:10;" x1="1175.755" y1="1629.629" x2="1199.447" y2="1625.744"/>
		
			<line style="fill:none;stroke:#D1DDFF;stroke-width:3.3741;stroke-miterlimit:10;" x1="1182.801" y1="1636.876" x2="1206.492" y2="1632.991"/>
		<path style="fill:none;stroke:#E5F0F8;stroke-width:1.687;stroke-miterlimit:10;" d="M942.738,1185.089
			c0,0,94.004,66.277,112.166,78.916c18.162,12.639,44.999,26.917,46.042,57.284c1.043,30.367-29.665,97.875-29.665,97.875"/>
		<path style="fill:#A06753;" d="M891.48,850.238c2.122,6.452,2.07,10.597-2.996,12.263c-5.065,1.666-12.08-1.064-14.203-7.516
			c-2.122-6.452,0.263-13.033,5.329-14.699C884.675,838.62,889.357,843.786,891.48,850.238z"/>
		
			<path style="fill:none;stroke:#724638;stroke-width:0.8435;stroke-linecap:round;stroke-linejoin:round;stroke-miterlimit:10;" d="
			M878.642,846.782c0,0,8.122-0.387,8.829,6.485c0,0-2.662-2.442-6.721-1.72"/>
		<path style="fill:#322A28;" d="M921.497,840.916c-0.016,2.624,1.347,4.759,3.045,4.77c1.698,0.01,3.086-2.109,3.102-4.733
			c0.016-2.624-1.347-4.759-3.045-4.77C922.902,836.173,921.513,838.292,921.497,840.916z"/>
		<path style="fill:#322A28;" d="M943.929,839.014c-0.016,2.624,1.347,4.759,3.045,4.77c1.698,0.01,3.086-2.109,3.102-4.733
			c0.016-2.624-1.347-4.76-3.045-4.77C945.333,834.271,943.944,836.39,943.929,839.014z"/>
		<path style="fill:#FFFFFF;" d="M929.795,871.386c3.096,1.074,6.476-0.565,7.55-3.661l-11.211-3.889
			C925.061,866.932,926.699,870.312,929.795,871.386z"/>
		<path style="fill:none;stroke:#2C3447;stroke-width:1.2523;stroke-miterlimit:10;" d="M915.552,835.607
			c0,0,5.307-6.508,11.432-4.105"/>
		<path style="fill:none;stroke:#2C3447;stroke-width:1.2523;stroke-miterlimit:10;" d="M944.438,830.434c0,0,3.831-0.69,7.88,3.478
			"/>
		<path style="fill:none;stroke:#2C3447;stroke-width:1.2523;stroke-miterlimit:10;" d="M935.999,839.342
			c0,0,0.223,13.003,7.843,14.64c0,0-2.441,2.194-5.488,3.085"/>
		<path style="fill:#A14C53;" d="M925.648,855.227c-0.639,2.498-4.911,3.563-9.542,2.378c-4.631-1.185-7.867-4.171-7.227-6.669
			c0.639-2.498,4.911-3.563,9.542-2.378C923.051,849.742,926.287,852.728,925.648,855.227z"/>
		<path style="fill:#A14C53;" d="M953.212,855.582c-2.785,0.106-5.017-0.767-5.575-2.46c-0.727-2.211,1.617-4.972,5.403-6.632
			C953.121,850.044,953.174,853.203,953.212,855.582z"/>
		<path style="fill:#A06753;" d="M1002.886,1090.025c-8.142-18.757-1.258-39.984,15.299-47.171l150.955-42.917
			c4.718-2.536,10.013-5.643,14.085-8.75c9.465-7.222,37.487-23.809,39.846-19.755c2.358,4.054-14.537,19.31-12.151,20.2
			c2.386,0.89,17.393-7.408,23.51-11.454c6.118-4.046,17.835-14.83,21.863-13.361c4.028,1.47,3.466,7.76,3.466,7.76
			s3.967-4.663,6.4-1.625c2.433,3.039-1.988,11.805-1.988,11.805s1.943-2.82,3.793,1.196c1.851,4.016-9.202,14.799-9.202,14.799
			s2.847-1.221,3.835,2.017c0.989,3.239-15.097,15.797-29.101,20.848c-12.501,4.509-43.395,11.925-49.887,13.465l-135.817,73.981
			C1031.237,1118.248,1011.029,1108.781,1002.886,1090.025z"/>
		
			<line style="fill:none;stroke:#2C3447;stroke-width:1.7343;stroke-miterlimit:10;" x1="829.136" y1="1058.778" x2="849.275" y2="1016.628"/>
		<polygon style="fill:#89A5C7;" points="917.689,1232.149 864.485,1185.089 1021.856,1185.089 1080.392,1232.149 		"/>
		<path style="fill:none;stroke:#FFFFFF;stroke-width:1.4284;stroke-miterlimit:10;" d="M889.956,864.652
			c-0.021,2.758-2.273,4.977-5.031,4.957c-2.758-0.021-4.977-2.273-4.957-5.031c0.021-2.758,2.273-4.977,5.031-4.957
			C887.757,859.642,889.976,861.894,889.956,864.652z"/>
		<g>
			<polygon style="fill:#A5BBD6;" points="1080.392,1232.149 917.689,1232.149 960.152,1110.311 1122.855,1110.311 			"/>
			<g>
				<polygon style="fill:#89A5C7;" points="919.463,1226.234 866.259,1179.174 1023.63,1179.174 1082.167,1226.234 				"/>
				<polygon style="fill:#A5BBD6;" points="1077.319,1229.453 914.616,1229.453 957.078,1107.615 1119.782,1107.615 				"/>
				<polygon style="fill:#89A5C7;" points="1119.782,1107.615 1122.855,1110.311 960.152,1110.311 917.689,1232.149 
					914.616,1229.453 957.078,1107.615 				"/>
				<polygon style="fill:#586773;" points="866.259,1179.174 864.485,1185.089 917.689,1232.149 919.75,1226.234 				"/>
			</g>
			<ellipse style="fill:#89A5C7;" cx="1027.133" cy="1172.616" rx="18.039" ry="7.984"/>
		</g>
		<path style="fill:#A06753;" d="M741.974,1080.029c9.597-18.056,30.489-25.898,46.427-17.427l127.629,91.324
			c4.924,2.109,10.653,4.316,15.62,5.564c11.546,2.903,41.98,14.484,40.28,18.855c-1.701,4.371-24.161,0.663-23.37,3.083
			c0.79,2.421,16.632,8.988,23.608,11.251c6.976,2.264,22.712,4.708,24.073,8.774c1.361,4.067-3.91,7.546-3.91,7.546
			s6.119,0.197,5.259,3.993c-0.861,3.796-10.472,5.801-10.472,5.801s3.417-0.238,1.428,3.712c-1.988,3.95-17.309,2.024-17.309,2.024
			s2.729,1.466,0.812,4.257s-21.762-1.965-34.439-9.77c-11.316-6.968-36.367-26.51-41.617-30.628l-142.492-60.128
			C737.566,1119.789,732.378,1098.085,741.974,1080.029z"/>
		<path style="fill:none;stroke:#2C3447;stroke-width:1.7343;stroke-miterlimit:10;" d="M977.788,1048.677
			c0,0,10.693-22.494,8.956-34.176c-1.737-11.683-11.254-43.25-12.51-52.944"/>
	</g>
	<g>
		<path style="fill:#088CFC;" d="M2886.783,1825.773h-374.549c-10.974,0-19.87-8.896-19.87-19.87v-215.239
			c0-10.974,8.896-19.87,19.87-19.87h374.549c10.974,0,19.87,8.896,19.87,19.87v215.239
			C2906.653,1816.877,2897.757,1825.773,2886.783,1825.773z"/>
		<g>
			<path style="fill:#FFFFFF;" d="M2639.474,1665.666c-4.511-4.861-8.877-8.095-13.097-9.718c-4.224-1.619-8.478-2.431-12.756-2.431
				c-6.363,0-12.119,1.128-17.263,3.384c-5.148,2.256-9.572,5.381-13.272,9.372c-3.704,3.987-6.567,8.648-8.59,13.967
				c-2.027,5.319-3.038,11.045-3.038,17.176c0,6.592,1.011,12.664,3.038,18.22c2.022,5.552,4.886,10.35,8.59,14.4
				c3.7,4.049,8.124,7.229,13.272,9.543c5.144,2.314,10.9,3.471,17.263,3.471c4.973,0,9.805-1.186,14.491-3.558
				c4.682-2.368,9.048-6.159,13.097-11.366l18.045,12.839c-5.552,7.637-12.319,13.189-20.301,16.66
				c-7.982,3.471-16.481,5.202-25.503,5.202c-9.489,0-18.191-1.531-26.115-4.595s-14.75-7.404-20.472-13.014
				c-5.727-5.61-10.213-12.348-13.447-20.214c-3.242-7.866-4.861-16.597-4.861-26.198c0-9.83,1.619-18.77,4.861-26.81
				c3.234-8.036,7.72-14.891,13.447-20.559c5.722-5.664,12.548-10.034,20.472-13.101c7.924-3.063,16.626-4.595,26.115-4.595
				c8.328,0,16.048,1.473,23.16,4.424c7.117,2.947,13.734,7.953,19.868,15.007L2639.474,1665.666z"/>
			<path style="fill:#FFFFFF;" d="M2734.209,1663.235c-2.314-3.354-5.406-5.814-9.281-7.375c-3.879-1.561-7.953-2.343-12.231-2.343
				c-2.547,0-5.007,0.291-7.375,0.87c-2.372,0.578-4.511,1.502-6.421,2.776c-1.906,1.274-3.442,2.922-4.599,4.944
				c-1.157,2.027-1.736,4.424-1.736,7.2c0,4.166,1.448,7.345,4.341,9.543c2.888,2.197,6.476,4.108,10.758,5.727
				c4.274,1.619,8.96,3.184,14.054,4.686c5.086,1.502,9.772,3.583,14.05,6.243c4.279,2.663,7.866,6.193,10.758,10.588
				s4.341,10.234,4.341,17.521c0,6.596-1.215,12.352-3.646,17.267c-2.43,4.915-5.698,8.994-9.801,12.231
				c-4.108,3.238-8.881,5.668-14.317,7.287c-5.439,1.619-11.166,2.426-17.176,2.426c-7.637,0-14.982-1.273-22.037-3.816
				c-7.058-2.543-13.131-6.821-18.22-12.839l16.485-15.96c2.659,4.049,6.159,7.2,10.496,9.456c4.341,2.256,8.936,3.384,13.796,3.384
				c2.543,0,5.086-0.35,7.633-1.041c2.543-0.695,4.857-1.735,6.942-3.125c2.081-1.386,3.758-3.151,5.031-5.29
				c1.269-2.139,1.906-4.599,1.906-7.375c0-4.511-1.444-7.982-4.337-10.413c-2.892-2.426-6.48-4.482-10.758-6.159
				c-4.278-1.673-8.965-3.267-14.054-4.77c-5.09-1.502-9.776-3.558-14.054-6.159c-4.279-2.605-7.866-6.072-10.754-10.413
				c-2.893-4.337-4.341-10.151-4.341-17.438c0-6.359,1.303-11.853,3.904-16.481c2.605-4.628,6.014-8.473,10.238-11.541
				c4.22-3.063,9.052-5.348,14.487-6.85c5.435-1.502,10.987-2.256,16.66-2.256c6.476,0,12.752,0.982,18.824,2.947
				c6.072,1.969,11.536,5.206,16.397,9.718L2734.209,1663.235z"/>
			<path style="fill:#FFFFFF;" d="M2833.801,1663.235c-2.314-3.354-5.406-5.814-9.281-7.375c-3.879-1.561-7.953-2.343-12.232-2.343
				c-2.547,0-5.007,0.291-7.375,0.87c-2.372,0.578-4.511,1.502-6.421,2.776c-1.906,1.274-3.442,2.922-4.599,4.944
				c-1.157,2.027-1.736,4.424-1.736,7.2c0,4.166,1.448,7.345,4.341,9.543c2.888,2.197,6.476,4.108,10.758,5.727
				c4.274,1.619,8.96,3.184,14.054,4.686c5.086,1.502,9.772,3.583,14.05,6.243c4.279,2.663,7.866,6.193,10.758,10.588
				s4.341,10.234,4.341,17.521c0,6.596-1.215,12.352-3.646,17.267c-2.43,4.915-5.698,8.994-9.801,12.231
				c-4.108,3.238-8.881,5.668-14.317,7.287c-5.439,1.619-11.166,2.426-17.176,2.426c-7.637,0-14.983-1.273-22.037-3.816
				c-7.058-2.543-13.13-6.821-18.22-12.839l16.485-15.96c2.659,4.049,6.159,7.2,10.496,9.456c4.341,2.256,8.936,3.384,13.796,3.384
				c2.543,0,5.086-0.35,7.633-1.041c2.543-0.695,4.857-1.735,6.942-3.125c2.081-1.386,3.758-3.151,5.031-5.29
				c1.27-2.139,1.906-4.599,1.906-7.375c0-4.511-1.444-7.982-4.337-10.413c-2.892-2.426-6.48-4.482-10.758-6.159
				c-4.278-1.673-8.964-3.267-14.054-4.77c-5.09-1.502-9.776-3.558-14.054-6.159c-4.278-2.605-7.866-6.072-10.754-10.413
				c-2.892-4.337-4.341-10.151-4.341-17.438c0-6.359,1.303-11.853,3.904-16.481c2.605-4.628,6.014-8.473,10.238-11.541
				c4.22-3.063,9.052-5.348,14.487-6.85c5.435-1.502,10.987-2.256,16.66-2.256c6.476,0,12.752,0.982,18.824,2.947
				c6.072,1.969,11.536,5.206,16.397,9.718L2833.801,1663.235z"/>
		</g>
	</g>
	<g>
		<path style="fill:#F9E181;" d="M2164.447,473.003h-282.76c-9.21,0-16.676-7.466-16.676-16.675V254.318
			c0-9.21,7.466-16.676,16.676-16.676h282.76c9.21,0,16.676,7.466,16.676,16.676v202.009
			C2181.123,465.537,2173.657,473.003,2164.447,473.003z"/>
		<g>
			<path style="fill:#FFFFFF;" d="M2003.57,390.562c0,6.242-1.016,12.248-3.012,18.055c-2.014,5.789-4.99,10.888-8.928,15.279
				c-3.938,4.373-8.873,7.875-14.825,10.47c-5.952,2.595-12.865,3.901-20.741,3.901c-12.484,0-22.7-2.903-30.648-8.692
				c-7.966-5.807-13.192-15.007-15.732-27.654l26.311-6.242c0.907,5.208,3.012,9.363,6.369,12.484
				c3.339,3.121,7.458,4.682,12.375,4.682c8.02,0,13.482-2.704,16.386-8.129c2.903-5.426,4.337-12.902,4.337-22.41V276.389h28.108
				V390.562z"/>
			<path style="fill:#FFFFFF;" d="M2115.057,310.285c-2.976-4.319-6.95-7.476-11.94-9.472c-4.972-2.014-10.216-3.012-15.714-3.012
				c-3.266,0-6.423,0.363-9.472,1.107c-3.049,0.744-5.807,1.941-8.256,3.575c-2.45,1.633-4.427,3.756-5.916,6.351
				c-1.488,2.595-2.214,5.68-2.214,9.254c0,5.353,1.851,9.436,5.571,12.266c3.702,2.831,8.311,5.28,13.827,7.349
				c5.498,2.087,11.504,4.101,18.055,6.024c6.532,1.942,12.557,4.609,18.055,8.021c5.498,3.43,10.107,7.966,13.827,13.609
				c3.72,5.643,5.571,13.156,5.571,22.519c0,8.474-1.561,15.878-4.682,22.192s-7.313,11.559-12.593,15.714
				c-5.281,4.155-11.414,7.295-18.4,9.363c-6.986,2.087-14.335,3.121-22.065,3.121c-9.817,0-19.253-1.633-28.326-4.899
				c-9.073-3.266-16.875-8.764-23.408-16.494l21.176-20.523c3.429,5.208,7.93,9.254,13.5,12.158
				c5.571,2.885,11.486,4.337,17.729,4.337c3.266,0,6.532-0.435,9.799-1.325c3.266-0.907,6.242-2.232,8.928-4.028
				c2.667-1.778,4.827-4.046,6.46-6.786c1.633-2.758,2.45-5.915,2.45-9.49c0-5.788-1.851-10.252-5.571-13.373
				c-3.72-3.121-8.329-5.752-13.827-7.912c-5.498-2.159-11.522-4.192-18.055-6.133c-6.551-1.923-12.557-4.573-18.055-7.911
				c-5.516-3.357-10.125-7.803-13.827-13.392c-3.72-5.571-5.571-13.029-5.571-22.392c0-8.184,1.669-15.242,5.008-21.194
				c3.339-5.934,7.73-10.888,13.156-14.825c5.426-3.938,11.632-6.877,18.618-8.801c6.986-1.942,14.117-2.903,21.412-2.903
				c8.311,0,16.385,1.27,24.188,3.792c7.803,2.522,14.825,6.678,21.067,12.484L2115.057,310.285z"/>
		</g>
	</g>
	<g>
		<path style="fill:#088CFC;" d="M3382.409,493.508h-477.6c-14.893,0-26.967-12.074-26.967-26.967V154.423
			c0-14.893,12.073-26.967,26.967-26.967h477.6c14.893,0,26.967,12.074,26.967,26.967v312.118
			C3409.376,481.435,3397.302,493.508,3382.409,493.508z"/>
		<g>
			<path style="fill:#FFFFFF;" d="M2906.27,343.059v-26.654l153.871-83.274v40.71l-102.783,55.891l102.783,55.891v40.71
				L2906.27,343.059z"/>
			<path style="fill:#FFFFFF;" d="M3106.966,459.642l-25.238-11.101l94.874-287.22l25.238,11.845L3106.966,459.642z"/>
			<path style="fill:#FFFFFF;" d="M3380.949,316.405v26.654l-153.871,83.274v-40.71l102.782-55.891l-102.782-55.891v-40.71
				L3380.949,316.405z"/>
		</g>
	</g>
	<g>
		<path style="fill:#F9E181;" d="M898.495,699.623H415.11c-12.265,0-22.207-9.943-22.207-22.207V471.834
			c0-12.265,9.942-22.207,22.207-22.207h483.385c12.265,0,22.207,9.942,22.207,22.207v205.582
			C920.702,689.681,910.76,699.623,898.495,699.623z"/>
		<g>
			<path style="fill:#FFFFFF;" d="M436.61,516.192h20.794v46.552h54.632v-46.552h20.808v116.867h-20.808v-51.502h-54.632v51.502
				H436.61V516.192z"/>
			<path style="fill:#FFFFFF;" d="M582.854,535.011h-35.826v-18.82h92.432v18.82h-35.812v98.047h-20.794V535.011z"/>
			<path style="fill:#FFFFFF;" d="M654.17,516.192h31.688l31.191,81.874l31.527-81.874h31.366v116.867h-19.8v-97.06h-0.336
				l-35.49,97.06h-14.521l-35.49-97.06h-0.336v97.06h-19.8V516.192z"/>
			<path style="fill:#FFFFFF;" d="M806.513,516.192h20.794v98.047h49.688v18.82h-70.483V516.192z"/>
		</g>
	</g>
</g>
</svg>
